<svg width="15" height="17" viewBox="0 0 15 17" fill="none" xmlns="http://www.w3.org/2000/svg">
    <path d="M9.77 0.722168H6.74133C5.36933 0.722168 4.282 0.722168 3.43189 0.837279C2.55611 0.955501 1.84756 1.20439 1.28911 1.76517C0.729889 2.32595 0.481778 3.03761 0.364333 3.9165C0.25 4.7705 0.25 5.86172 0.25 7.23917V11.7798C0.25 12.9527 0.965556 13.9576 1.98211 14.3792C1.93 13.6714 1.93 12.6797 1.93 11.8537V7.95706C1.93 6.96072 1.93 6.10128 2.02178 5.41372C2.12056 4.67639 2.343 3.97017 2.91389 3.39695C3.48478 2.82372 4.18867 2.6005 4.92289 2.50095C5.60733 2.40917 6.46289 2.40917 7.45611 2.40917H9.84389C10.8363 2.40917 11.6903 2.40917 12.3756 2.50095C12.1702 1.97701 11.8118 1.52709 11.3471 1.2098C10.8823 0.892517 10.3327 0.72259 9.77 0.722168Z" fill="#0066FF"/>
    <path d="M3.05005 8.03097C3.05005 5.91075 3.05005 4.85064 3.70649 4.19186C4.36216 3.53308 5.4176 3.53308 7.53005 3.53308H9.77005C11.8817 3.53308 12.9379 3.53308 13.5944 4.19186C14.25 4.85064 14.25 5.91075 14.25 8.03097V11.7799C14.25 13.9001 14.25 14.9602 13.5944 15.619C12.9379 16.2777 11.8817 16.2777 9.77005 16.2777H7.53005C5.41838 16.2777 4.36216 16.2777 3.70649 15.619C3.05005 14.9602 3.05005 13.9001 3.05005 11.7799V8.03097Z" fill="#0066FF"/>
</svg>
